<svg xmlns="http://www.w3.org/2000/svg" width="580" height="23" viewBox="0 0 580 23" fill="none">
<path fill-rule="evenodd" clip-rule="evenodd" d="M387.4 8.59683C451.248 9.85285 515.312 12.8344 576.959 20.0747C578.059 20.2035 578.511 20.4132 578.6 20.4608C579.121 20.7428 579.171 21.0296 579.098 21.2629C579.054 21.4046 578.768 22.0003 577.287 22.0248C576.263 22.0407 569.015 21.5622 566.217 21.4154C553.047 20.7257 539.907 19.8855 526.776 18.9667C497.003 16.8884 467.266 14.9891 437.44 13.19C420.694 12.1791 403.939 11.2687 387.192 10.4459C346.873 9.65628 306.637 9.55573 267.151 9.50452C282.824 10.389 297.223 11.2477 309.165 11.8709C329.303 12.9211 349.402 14.0678 369.492 15.4158C379.814 16.1069 390.122 16.8346 400.421 17.6461C401.562 17.7373 404.162 17.8673 405.42 17.9749C405.954 18.0188 406.34 18.0773 406.513 18.1153C407.596 18.3546 407.722 18.7911 407.73 19.0097C407.733 19.1425 407.625 19.8637 405.784 19.9579C320.182 24.3999 231.247 14.4325 145.342 18.682C144.335 18.732 143.402 18.3588 143.264 17.8481C143.127 17.339 143.834 16.8833 144.844 16.8334C225.752 12.8312 309.349 21.4416 390.327 18.7447C383.27 18.2206 376.209 17.7301 369.141 17.2562C349.087 15.9108 329.025 14.7668 308.921 13.7174C288.69 12.6632 261.349 10.9139 232.719 9.52148C208.117 9.5838 183.526 9.73039 158.921 9.75905C148.541 9.77025 138.159 9.73437 127.782 9.75069C123.516 9.7563 112.536 9.95548 110.951 9.73705C109.718 9.56626 109.432 9.11386 109.364 8.88873C109.294 8.64505 109.348 8.34575 109.917 8.073C110.093 7.98677 110.619 7.81204 111.692 7.68482C140.712 4.25964 188.055 5.53051 232.372 7.66494C241.916 7.63919 251.461 7.62688 261.008 7.63982C282.863 7.66714 304.959 7.6989 327.179 7.84637C264.61 5.47565 201.985 4.10465 139.335 3.07229C113.03 2.63942 42.1064 2.26149 14.1555 2.81133C14.4918 2.99627 14.6859 3.24644 14.6558 3.51275C14.596 4.02186 13.7207 4.396 12.7024 4.34655C6.94632 4.06563 3.61991 3.80961 2.30482 3.59975C1.48572 3.46972 1.04256 3.28375 0.838317 3.16432C0.337556 2.8761 0.251542 2.57827 0.358866 2.30049C0.426828 2.12753 0.588632 1.94016 0.953903 1.77309C1.1975 1.65835 1.79021 1.48868 2.79559 1.3883C13.8049 0.296262 107.995 0.700478 139.315 1.21569C222.081 2.58046 304.799 4.53528 387.4 8.59683ZM134.084 7.88874C150.281 7.19755 169.247 7.29239 189.02 7.82101C178.94 7.85833 168.857 7.88886 158.771 7.90083C150.544 7.91141 142.314 7.89 134.084 7.88874ZM463.601 12.9339C484.795 14.2596 505.964 15.6485 527.147 17.1284C529.593 17.2982 532.036 17.4662 534.482 17.6327C511.067 15.5919 487.394 14.0704 463.601 12.9339Z" fill="#686764"/>
</svg>