<svg xmlns="http://www.w3.org/2000/svg" width="86" height="89" viewBox="0 0 86 89" fill="none">
<g clip-path="url(#clip0_9169_8571)">
<path d="M16.1884 55.0845L16.5545 56.9467L15.5114 56.9727L15.1452 55.1104L11.4853 55.2485L11.872 57.2152L10.8322 57.2586L10.4455 55.2919L7.0352 55.4124L6.81619 54.2985L10.2265 54.178L9.60032 50.9931L6.18997 51.1135L5.97096 49.9996L9.38131 49.8792L9.01174 47.9996L10.0515 47.9562L10.4211 49.8358L14.081 49.6977L13.6909 47.7137L14.734 47.6877L15.1242 49.6718L18.5311 49.5339L18.7501 50.6478L15.3432 50.7856L15.9694 53.9706L19.3763 53.8328L19.5953 54.9466L16.1884 55.0845ZM14.3 50.8116L10.6401 50.9497L11.2663 54.1347L14.9262 53.9966L14.3 50.8116Z" fill="white"/>
<path d="M6.03011 33.1582L6.64415 32.0384L16.5045 34.735L17.7564 35.1795L16.7603 34.2684L9.60349 26.6416L10.1834 25.5841L20.0693 28.234L21.3213 28.6785L20.3252 27.7674L13.1428 20.1873L13.7568 19.0675L22.6668 28.6206L21.9675 29.8959L11.3668 27.0013L19.0849 35.1527L18.3856 36.428L6.03011 33.1582Z" fill="white"/>
<path d="M32.6488 19.954C31.604 20.3978 30.5569 20.5408 29.5077 20.3829C28.4694 20.2204 27.5307 19.7909 26.6916 19.0944C25.859 18.3823 25.2276 17.4692 24.7973 16.3551C24.3669 15.241 24.2165 14.13 24.3461 13.0221C24.4822 11.8985 24.8692 10.8995 25.507 10.0251C26.1557 9.14607 27.0024 8.48466 28.0473 8.04087C29.0921 7.59708 30.1337 7.45642 31.172 7.61891C32.2212 7.77677 33.1621 8.21177 33.9946 8.92391C34.8338 9.6204 35.4685 10.5257 35.8988 11.6398C36.3292 12.7539 36.4762 13.8727 36.3401 14.9963C36.2106 16.1042 35.8215 17.0977 35.1728 17.9767C34.535 18.8511 33.6937 19.5102 32.6488 19.954ZM32.2526 18.9282C33.1233 18.5583 33.8151 18.0205 34.328 17.3147C34.8409 16.609 35.1375 15.8024 35.2178 14.8952C35.2981 13.9879 35.1551 13.06 34.7887 12.1113C34.4223 11.1627 33.9092 10.3919 33.2494 9.799C32.5896 9.20609 31.8414 8.84336 31.0047 8.71081C30.1679 8.57826 29.3142 8.6969 28.4435 9.06672C27.5728 9.43655 26.881 9.97435 26.3681 10.6801C25.8552 11.3859 25.5586 12.1924 25.4783 13.0997C25.398 14.007 25.541 14.9349 25.9074 15.8836C26.2738 16.8322 26.7869 17.603 27.4467 18.1959C28.1065 18.7888 28.8547 19.1515 29.6914 19.2841C30.5281 19.4166 31.3819 19.298 32.2526 18.9282Z" fill="white"/>
<path d="M46.6171 4.76656L50.1916 5.60578C51.5385 5.92201 52.5075 6.50776 53.0985 7.36303C53.6896 8.2183 53.8593 9.23572 53.6074 10.4153C53.2667 12.0112 52.267 12.9848 50.6083 13.3361L52.2959 18.851L51.0008 18.547L49.4057 13.3634L46.1766 12.6053L45.1988 17.1848L44.0246 16.9091L46.6171 4.76656ZM49.0309 12.1461C49.9288 12.3569 50.6747 12.2891 51.2685 11.9428C51.8622 11.5964 52.2529 10.9838 52.4406 10.1049C52.6282 9.22601 52.5239 8.49717 52.1277 7.91838C51.7314 7.33959 51.0844 6.94478 50.1864 6.73397L47.5617 6.11773L46.4062 11.5298L49.0309 12.1461Z" fill="white"/>
<path d="M67.5245 14.0679L68.3232 14.9718L64.1508 19.0262L71.7294 18.8263L72.716 19.9427L64.9417 20.1352L63.8819 28.6753L62.8953 27.5588L63.9218 19.2487L59.4187 23.6245L58.62 22.7207L67.5245 14.0679Z" fill="white"/>
<path d="M79.4724 33.8933L80.5458 40.9605L79.4611 41.1416L78.5688 35.267L73.8977 36.0472L74.7207 41.4659L73.636 41.6471L72.813 36.2284L67.407 37.1313L67.2259 35.9388L79.4724 33.8933Z" fill="white"/>
<path d="M80.0239 53.0462L78.8194 56.5146C78.3655 57.8216 77.6885 58.7081 76.7885 59.1741C75.8884 59.6401 74.875 59.6579 73.7483 59.2277C72.2238 58.6455 71.3787 57.4941 71.213 55.7734L65.6374 56.6427L66.0738 55.386L71.3154 54.5599L72.4035 51.4266L68.029 49.7561L68.4247 48.6167L80.0239 53.0462ZM72.5464 54.3658C72.2438 55.2371 72.2301 55.9973 72.5051 56.6464C72.7802 57.2955 73.3375 57.7803 74.1771 58.1009C75.0166 58.4215 75.7408 58.426 76.3495 58.1145C76.9581 57.8029 77.4138 57.2114 77.7164 56.3401L78.6008 53.7932L73.4309 51.8189L72.5464 54.3658Z" fill="white"/>
<path d="M58.7521 65.3587C59.6565 64.6796 60.6322 64.2928 61.6792 64.1984C62.7168 64.1109 63.7199 64.307 64.6886 64.7864C65.6545 65.2827 66.4729 66.0221 67.1438 67.0047C67.8148 67.9873 68.2154 69.0331 68.3457 70.1421C68.4731 71.2679 68.3303 72.3317 67.9171 73.3337C67.4946 74.3427 66.8311 75.1867 65.9267 75.8658C65.0224 76.5448 64.0514 76.9281 63.0138 77.0155C61.9668 77.11 60.9603 76.9091 59.9944 76.4128C59.0258 75.9334 58.2059 75.2024 57.535 74.2197C56.864 73.2371 56.4648 72.1829 56.3373 71.0571C56.2071 69.9481 56.3533 68.8892 56.7758 67.8802C57.189 66.8782 57.8477 66.0378 58.7521 65.3587ZM59.3699 66.2635C58.6163 66.8293 58.0736 67.5164 57.742 68.3247C57.4104 69.1329 57.3103 69.9881 57.4417 70.8901C57.5732 71.7922 57.9246 72.6616 58.4959 73.4982C59.0672 74.3349 59.7389 74.9638 60.5109 75.3848C61.2829 75.8059 62.0872 75.982 62.9237 75.9131C63.7602 75.8442 64.5553 75.5269 65.3089 74.961C66.0626 74.3951 66.6052 73.708 66.9368 72.8998C67.2684 72.0915 67.3685 71.2364 67.2371 70.3343C67.1057 69.4322 66.7543 68.5629 66.183 67.7262C65.6116 66.8895 64.94 66.2607 64.1679 65.8396C63.3959 65.4185 62.5916 65.2425 61.7551 65.3113C60.9186 65.3802 60.1236 65.6976 59.3699 66.2635Z" fill="white"/>
<path d="M47.165 84.3656L45.9059 84.2732L42.3311 72.9572L37.2876 83.6405L36.0286 83.5481L36.8576 71.1292L38.0635 71.2177L37.4287 80.727L41.8229 71.4936L43.0287 71.5822L46.1534 81.3675L46.7881 71.8581L47.994 71.9466L47.165 84.3656Z" fill="white"/>
<path d="M22.1916 70.173L20.8292 76.5295L19.8463 75.5559L20.9997 70.4637L16.2172 71.9608L15.2343 70.9871L21.2087 69.1993L22.9271 61.1505L23.91 62.1241L22.4125 68.8954L28.7741 66.9425L29.757 67.9162L22.1916 70.173Z" fill="white"/>
<path d="M38.6106 41.8515H51.7048M38.6106 47.4633H51.7048M44.2224 37.175L40.4812 52.1398M49.8342 37.175L46.093 52.1398" stroke="#686764" stroke-width="1.84002" stroke-linecap="round" stroke-linejoin="round"/>
</g>
<defs>
<clipPath id="clip0_9169_8571">
<rect width="85" height="89" fill="white" transform="translate(0.5)"/>
</clipPath>
</defs>
</svg>